<svg width="390" height="884" viewBox="0 0 390 884" fill="none" xmlns="http://www.w3.org/2000/svg">
<rect width="390" height="884" fill="white"/>
<path d="M93.3315 833.828C93.3315 834.153 93.2769 834.468 93.1677 834.77C93.0585 835.073 92.8911 835.34 92.6655 835.573C92.4399 835.806 92.1534 835.991 91.8061 836.129C91.4588 836.267 91.047 836.336 90.5708 836.336H88.6909V839H87.1064V831.432H90.5063C90.9897 831.432 91.4086 831.49 91.7631 831.607C92.1176 831.723 92.4112 831.887 92.644 832.098C92.8767 832.309 93.0495 832.562 93.1623 832.855C93.2751 833.149 93.3315 833.473 93.3315 833.828ZM91.7363 833.854C91.7363 833.464 91.619 833.168 91.3845 832.966C91.1499 832.763 90.7981 832.662 90.3291 832.662H88.6909V835.117H90.372C90.6083 835.117 90.8116 835.086 90.9816 835.025C91.1517 834.965 91.2932 834.879 91.406 834.768C91.5187 834.657 91.602 834.523 91.6557 834.367C91.7094 834.212 91.7363 834.041 91.7363 833.854ZM104.002 835.181C104.002 835.772 103.914 836.309 103.739 836.792C103.563 837.276 103.311 837.689 102.981 838.033C102.652 838.377 102.25 838.642 101.775 838.828C101.301 839.014 100.765 839.107 100.167 839.107C99.533 839.107 98.9788 839.01 98.5044 838.815C98.0299 838.62 97.6334 838.347 97.3147 837.998C96.996 837.649 96.757 837.235 96.5977 836.755C96.4383 836.275 96.3586 835.75 96.3586 835.181C96.3586 834.59 96.4419 834.057 96.6084 833.581C96.7749 833.104 97.0202 832.699 97.3442 832.364C97.6683 832.029 98.0675 831.771 98.542 831.591C99.0164 831.41 99.5616 831.319 100.177 831.319C100.793 831.319 101.339 831.411 101.813 831.593C102.287 831.776 102.687 832.035 103.011 832.372C103.335 832.709 103.581 833.114 103.749 833.589C103.918 834.063 104.002 834.594 104.002 835.181ZM102.385 835.181C102.385 834.784 102.338 834.425 102.243 834.104C102.148 833.784 102.007 833.509 101.821 833.28C101.635 833.051 101.405 832.874 101.131 832.751C100.857 832.627 100.539 832.565 100.177 832.565C99.8087 832.565 99.4855 832.627 99.208 832.751C98.9305 832.874 98.6986 833.051 98.5125 833.28C98.3263 833.509 98.1866 833.784 98.0935 834.104C98.0004 834.425 97.9539 834.784 97.9539 835.181C97.9539 835.575 98.0013 835.936 98.0962 836.263C98.1911 836.591 98.3316 836.873 98.5178 837.109C98.704 837.346 98.935 837.53 99.2107 837.663C99.4864 837.795 99.8051 837.861 100.167 837.861C100.553 837.861 100.886 837.794 101.166 837.66C101.445 837.526 101.675 837.339 101.856 837.101C102.037 836.863 102.17 836.58 102.256 836.253C102.342 835.925 102.385 835.568 102.385 835.181ZM115.08 839H113.2L112.174 834.623C112.142 834.49 112.107 834.333 112.07 834.15C112.032 833.967 111.997 833.79 111.965 833.618C111.926 833.421 111.89 833.217 111.857 833.006C111.818 833.217 111.779 833.423 111.739 833.624C111.721 833.709 111.704 833.798 111.686 833.889C111.668 833.981 111.649 834.07 111.629 834.158C111.61 834.246 111.592 834.329 111.575 834.408C111.559 834.486 111.542 834.558 111.524 834.623L110.504 839H108.624L106.674 831.432H108.28L109.226 835.643C109.279 835.872 109.329 836.098 109.376 836.32C109.423 836.542 109.466 836.741 109.505 836.916C109.548 837.12 109.587 837.315 109.623 837.501C109.677 837.236 109.729 836.979 109.779 836.728C109.8 836.621 109.824 836.51 109.849 836.395C109.874 836.28 109.898 836.168 109.921 836.057C109.944 835.946 109.968 835.839 109.991 835.737C110.014 835.635 110.035 835.543 110.053 835.46L110.987 831.432H112.76L113.716 835.46C113.737 835.546 113.759 835.642 113.78 835.748C113.802 835.853 113.823 835.963 113.845 836.075C113.866 836.188 113.888 836.301 113.909 836.414C113.931 836.527 113.95 836.637 113.968 836.744C114.011 836.995 114.054 837.247 114.097 837.501C114.14 837.301 114.185 837.093 114.231 836.878C114.271 836.696 114.316 836.495 114.366 836.277C114.416 836.058 114.466 835.847 114.516 835.643L115.429 831.432H117.035L115.08 839ZM119.982 839V831.432H125.933V832.657H121.566V834.558H125.605V835.783H121.566V837.775H126.153V839H119.982ZM134.718 839L132.962 836.126H131.103V839H129.519V831.432H133.3C133.773 831.432 134.185 831.485 134.538 831.591C134.891 831.696 135.185 831.847 135.422 832.042C135.658 832.237 135.834 832.473 135.951 832.751C136.067 833.028 136.125 833.341 136.125 833.688C136.125 833.971 136.083 834.23 135.999 834.464C135.915 834.699 135.798 834.907 135.65 835.09C135.501 835.272 135.325 835.426 135.121 835.549C134.917 835.673 134.695 835.763 134.455 835.82L136.501 839H134.718ZM134.53 833.752C134.53 833.384 134.409 833.11 134.167 832.931C133.926 832.752 133.581 832.662 133.133 832.662H131.103V834.896H133.176C133.413 834.896 133.616 834.869 133.786 834.813C133.956 834.758 134.096 834.679 134.205 834.577C134.314 834.475 134.396 834.354 134.449 834.214C134.503 834.075 134.53 833.921 134.53 833.752ZM139.663 839V831.432H145.614V832.657H141.247V834.558H145.286V835.783H141.247V837.775H145.834V839H139.663ZM155.946 835.16C155.946 835.79 155.851 836.344 155.661 836.822C155.471 837.3 155.212 837.7 154.882 838.022C154.553 838.345 154.163 838.588 153.714 838.753C153.264 838.918 152.78 839 152.261 839H149.199V831.432H151.939C152.526 831.432 153.065 831.506 153.555 831.652C154.046 831.799 154.469 832.025 154.823 832.329C155.177 832.633 155.453 833.02 155.65 833.489C155.847 833.958 155.946 834.515 155.946 835.16ZM154.35 835.16C154.35 834.719 154.29 834.341 154.17 834.026C154.05 833.711 153.883 833.453 153.668 833.25C153.453 833.048 153.196 832.898 152.897 832.802C152.598 832.705 152.268 832.657 151.906 832.657H150.784V837.775H152.127C152.445 837.775 152.74 837.72 153.01 837.609C153.281 837.498 153.515 837.332 153.714 837.112C153.913 836.892 154.068 836.619 154.181 836.293C154.294 835.967 154.35 835.589 154.35 835.16ZM171.308 836.841C171.308 837.224 171.231 837.552 171.077 837.826C170.923 838.1 170.713 838.324 170.446 838.498C170.179 838.671 169.869 838.799 169.514 838.879C169.16 838.96 168.784 839 168.386 839H164.599V831.432H168.064C168.511 831.432 168.91 831.471 169.259 831.548C169.608 831.625 169.903 831.742 170.142 831.899C170.382 832.057 170.564 832.255 170.688 832.493C170.811 832.731 170.873 833.011 170.873 833.333C170.873 833.763 170.754 834.126 170.516 834.421C170.278 834.717 169.915 834.916 169.428 835.02C170.04 835.092 170.507 835.284 170.827 835.597C171.148 835.911 171.308 836.325 171.308 836.841ZM169.278 833.548C169.278 833.208 169.169 832.966 168.953 832.823C168.736 832.68 168.415 832.608 167.989 832.608H166.184V834.483H167.999C168.447 834.483 168.772 834.405 168.974 834.249C169.177 834.094 169.278 833.86 169.278 833.548ZM169.718 836.717C169.718 836.517 169.679 836.348 169.6 836.212C169.521 836.076 169.413 835.967 169.275 835.885C169.137 835.802 168.976 835.743 168.792 835.708C168.607 835.672 168.408 835.654 168.193 835.654H166.184V837.824H168.252C168.459 837.824 168.653 837.807 168.832 837.773C169.011 837.739 169.166 837.68 169.296 837.595C169.427 837.511 169.53 837.398 169.605 837.254C169.681 837.111 169.718 836.932 169.718 836.717ZM178.471 835.896V839H176.892V835.896L174.195 831.432H175.855L177.671 834.633L179.507 831.432H181.167L178.471 835.896ZM196.696 835.181C196.696 835.772 196.608 836.309 196.433 836.792C196.257 837.276 196.005 837.689 195.676 838.033C195.346 838.377 194.944 838.642 194.47 838.828C193.995 839.014 193.459 839.107 192.861 839.107C192.227 839.107 191.673 839.01 191.199 838.815C190.724 838.62 190.328 838.347 190.009 837.998C189.69 837.649 189.451 837.235 189.292 836.755C189.133 836.275 189.053 835.75 189.053 835.181C189.053 834.59 189.136 834.057 189.303 833.581C189.469 833.104 189.715 832.699 190.039 832.364C190.363 832.029 190.762 831.771 191.236 831.591C191.711 831.41 192.256 831.319 192.872 831.319C193.488 831.319 194.033 831.411 194.507 831.593C194.982 831.776 195.381 832.035 195.705 832.372C196.029 832.709 196.275 833.114 196.444 833.589C196.612 834.063 196.696 834.594 196.696 835.181ZM195.079 835.181C195.079 834.784 195.032 834.425 194.937 834.104C194.842 833.784 194.702 833.509 194.515 833.28C194.329 833.051 194.099 832.874 193.825 832.751C193.551 832.627 193.233 832.565 192.872 832.565C192.503 832.565 192.18 832.627 191.902 832.751C191.625 832.874 191.393 833.051 191.207 833.28C191.021 833.509 190.881 833.784 190.788 834.104C190.695 834.425 190.648 834.784 190.648 835.181C190.648 835.575 190.696 835.936 190.791 836.263C190.885 836.591 191.026 836.873 191.212 837.109C191.398 837.346 191.629 837.53 191.905 837.663C192.181 837.795 192.499 837.861 192.861 837.861C193.248 837.861 193.581 837.794 193.86 837.66C194.139 837.526 194.369 837.339 194.55 837.101C194.731 836.863 194.865 836.58 194.95 836.253C195.036 835.925 195.079 835.568 195.079 835.181ZM206.802 836.841C206.802 837.224 206.725 837.552 206.571 837.826C206.417 838.1 206.207 838.324 205.94 838.498C205.673 838.671 205.363 838.799 205.008 838.879C204.654 838.96 204.278 839 203.88 839H200.094V831.432H203.558C204.006 831.432 204.404 831.471 204.753 831.548C205.102 831.625 205.397 831.742 205.637 831.899C205.877 832.057 206.058 832.255 206.182 832.493C206.305 832.731 206.367 833.011 206.367 833.333C206.367 833.763 206.248 834.126 206.01 834.421C205.772 834.717 205.409 834.916 204.922 835.02C205.535 835.092 206.001 835.284 206.322 835.597C206.642 835.911 206.802 836.325 206.802 836.841ZM204.772 833.548C204.772 833.208 204.664 832.966 204.447 832.823C204.23 832.68 203.909 832.608 203.483 832.608H201.678V834.483H203.494C203.941 834.483 204.266 834.405 204.469 834.249C204.671 834.094 204.772 833.86 204.772 833.548ZM205.212 836.717C205.212 836.517 205.173 836.348 205.094 836.212C205.016 836.076 204.907 835.967 204.769 835.885C204.631 835.802 204.47 835.743 204.286 835.708C204.102 835.672 203.902 835.654 203.687 835.654H201.678V837.824H203.746C203.954 837.824 204.147 837.807 204.326 837.773C204.505 837.739 204.66 837.68 204.791 837.595C204.922 837.511 205.024 837.398 205.1 837.254C205.175 837.111 205.212 836.932 205.212 836.717ZM216.409 836.819C216.409 837.163 216.346 837.476 216.221 837.757C216.096 838.038 215.901 838.278 215.638 838.479C215.375 838.68 215.039 838.834 214.629 838.944C214.219 839.053 213.731 839.107 213.165 839.107C212.664 839.107 212.221 839.063 211.838 838.973C211.455 838.884 211.127 838.751 210.853 838.576C210.579 838.4 210.357 838.183 210.187 837.923C210.017 837.663 209.894 837.365 209.819 837.029L211.349 836.776C211.392 836.945 211.455 837.099 211.537 837.238C211.62 837.378 211.733 837.499 211.879 837.601C212.024 837.703 212.204 837.782 212.421 837.837C212.638 837.893 212.9 837.92 213.208 837.92C213.745 837.92 214.156 837.839 214.441 837.676C214.725 837.513 214.868 837.258 214.868 836.911C214.868 836.703 214.81 836.533 214.696 836.4C214.581 836.268 214.429 836.159 214.239 836.073C214.049 835.987 213.831 835.915 213.584 835.858C213.337 835.801 213.079 835.745 212.81 835.691C212.596 835.641 212.381 835.589 212.166 835.536C211.951 835.482 211.746 835.417 211.551 835.342C211.356 835.267 211.174 835.178 211.006 835.074C210.837 834.97 210.692 834.842 210.568 834.69C210.444 834.538 210.348 834.359 210.278 834.155C210.208 833.951 210.173 833.711 210.173 833.436C210.173 833.06 210.248 832.737 210.399 832.469C210.549 832.2 210.758 831.981 211.025 831.811C211.291 831.641 211.609 831.516 211.978 831.438C212.347 831.359 212.75 831.319 213.186 831.319C213.681 831.319 214.104 831.358 214.457 831.435C214.809 831.512 215.105 831.629 215.343 831.787C215.581 831.944 215.769 832.142 215.907 832.38C216.045 832.618 216.146 832.897 216.21 833.215L214.674 833.425C214.595 833.099 214.435 832.854 214.193 832.689C213.952 832.524 213.605 832.442 213.154 832.442C212.875 832.442 212.643 832.466 212.459 832.514C212.274 832.563 212.127 832.628 212.018 832.71C211.909 832.793 211.831 832.889 211.785 832.998C211.738 833.107 211.715 833.222 211.715 833.344C211.715 833.53 211.759 833.684 211.849 833.803C211.938 833.923 212.064 834.024 212.225 834.104C212.386 834.185 212.579 834.253 212.802 834.308C213.026 834.364 213.272 834.42 213.541 834.478C213.777 834.528 214.012 834.58 214.244 834.636C214.477 834.691 214.699 834.757 214.91 834.832C215.122 834.907 215.319 834.999 215.501 835.106C215.684 835.213 215.842 835.345 215.977 835.501C216.111 835.656 216.217 835.842 216.294 836.057C216.371 836.271 216.409 836.526 216.409 836.819ZM219.775 839V831.432H221.359V839H219.775ZM231.777 835.16C231.777 835.79 231.682 836.344 231.492 836.822C231.302 837.3 231.043 837.7 230.713 838.022C230.384 838.345 229.995 838.588 229.545 838.753C229.096 838.918 228.611 839 228.092 839H225.031V831.432H227.77C228.357 831.432 228.896 831.506 229.387 831.652C229.877 831.799 230.3 832.025 230.654 832.329C231.009 832.633 231.284 833.02 231.481 833.489C231.678 833.958 231.777 834.515 231.777 835.16ZM230.182 835.16C230.182 834.719 230.122 834.341 230.002 834.026C229.882 833.711 229.714 833.453 229.499 833.25C229.285 833.048 229.028 832.898 228.729 832.802C228.43 832.705 228.099 832.657 227.738 832.657H226.615V837.775H227.958C228.277 837.775 228.571 837.72 228.842 837.609C229.112 837.498 229.346 837.332 229.545 837.112C229.744 836.892 229.9 836.619 230.012 836.293C230.125 835.967 230.182 835.589 230.182 835.16ZM235.175 839V831.432H236.759V839H235.175ZM245.78 839L245.109 837.066H242.225L241.553 839H239.969L242.73 831.432H244.599L247.349 839H245.78ZM244.008 833.699C243.965 833.573 243.923 833.447 243.882 833.32C243.84 833.193 243.805 833.077 243.774 832.971C243.744 832.865 243.719 832.778 243.699 832.71C243.679 832.642 243.668 832.605 243.664 832.598C243.661 832.608 243.65 832.648 243.632 832.716C243.614 832.784 243.59 832.87 243.559 832.974C243.529 833.077 243.493 833.193 243.452 833.32C243.411 833.447 243.369 833.573 243.326 833.699L242.579 835.874H244.754L244.008 833.699ZM255.183 839L251.885 833.172C251.903 833.33 251.919 833.487 251.933 833.645C251.948 833.781 251.959 833.928 251.968 834.085C251.977 834.243 251.982 834.393 251.982 834.537V839H250.575V831.432H252.385L255.731 837.308C255.713 837.158 255.697 837 255.682 836.835C255.668 836.696 255.657 836.538 255.648 836.363C255.639 836.187 255.634 836.01 255.634 835.831V831.432H257.041V839H255.183ZM269.509 837.861C269.806 837.861 270.063 837.819 270.279 837.735C270.496 837.651 270.684 837.541 270.843 837.405C271.003 837.269 271.135 837.115 271.241 836.943C271.347 836.771 271.433 836.597 271.501 836.422L272.882 836.943C272.771 837.215 272.626 837.482 272.447 837.743C272.268 838.005 272.044 838.236 271.775 838.436C271.507 838.637 271.187 838.799 270.817 838.922C270.446 839.046 270.01 839.107 269.509 839.107C268.853 839.107 268.286 839.01 267.806 838.815C267.326 838.62 266.93 838.347 266.616 837.998C266.303 837.649 266.07 837.235 265.918 836.755C265.766 836.275 265.69 835.75 265.69 835.181C265.69 834.59 265.766 834.057 265.918 833.581C266.07 833.104 266.3 832.699 266.608 832.364C266.916 832.029 267.306 831.771 267.777 831.591C268.247 831.41 268.802 831.319 269.439 831.319C269.933 831.319 270.365 831.371 270.736 831.475C271.107 831.579 271.427 831.725 271.697 831.913C271.968 832.101 272.192 832.323 272.369 832.579C272.546 832.835 272.685 833.117 272.785 833.425L271.389 833.806C271.338 833.645 271.262 833.49 271.158 833.342C271.054 833.193 270.922 833.061 270.763 832.947C270.604 832.832 270.416 832.74 270.202 832.67C269.987 832.6 269.743 832.565 269.471 832.565C269.088 832.565 268.759 832.627 268.483 832.751C268.207 832.874 267.981 833.051 267.803 833.28C267.626 833.509 267.495 833.784 267.411 834.104C267.327 834.425 267.285 834.784 267.285 835.181C267.285 835.575 267.327 835.936 267.411 836.263C267.495 836.591 267.627 836.873 267.806 837.109C267.985 837.346 268.215 837.53 268.496 837.663C268.777 837.795 269.115 837.861 269.509 837.861ZM283.477 835.181C283.477 835.772 283.389 836.309 283.214 836.792C283.038 837.276 282.786 837.689 282.456 838.033C282.127 838.377 281.725 838.642 281.25 838.828C280.776 839.014 280.24 839.107 279.642 839.107C279.008 839.107 278.454 839.01 277.979 838.815C277.505 838.62 277.108 838.347 276.79 837.998C276.471 837.649 276.232 837.235 276.073 836.755C275.913 836.275 275.834 835.75 275.834 835.181C275.834 834.59 275.917 834.057 276.083 833.581C276.25 833.104 276.495 832.699 276.819 832.364C277.143 832.029 277.543 831.771 278.017 831.591C278.492 831.41 279.037 831.319 279.653 831.319C280.268 831.319 280.814 831.411 281.288 831.593C281.763 831.776 282.162 832.035 282.486 832.372C282.81 832.709 283.056 833.114 283.224 833.589C283.393 834.063 283.477 834.594 283.477 835.181ZM281.86 835.181C281.86 834.784 281.813 834.425 281.718 834.104C281.623 833.784 281.482 833.509 281.296 833.28C281.11 833.051 280.88 832.874 280.606 832.751C280.332 832.627 280.014 832.565 279.653 832.565C279.284 832.565 278.961 832.627 278.683 832.751C278.406 832.874 278.174 833.051 277.988 833.28C277.801 833.509 277.662 833.784 277.569 834.104C277.476 834.425 277.429 834.784 277.429 835.181C277.429 835.575 277.476 835.936 277.571 836.263C277.666 836.591 277.807 836.873 277.993 837.109C278.179 837.346 278.41 837.53 278.686 837.663C278.962 837.795 279.28 837.861 279.642 837.861C280.029 837.861 280.362 837.794 280.641 837.66C280.92 837.526 281.15 837.339 281.331 837.101C281.512 836.863 281.645 836.58 281.731 836.253C281.817 835.925 281.86 835.568 281.86 835.181ZM292.074 839L290.317 836.126H288.459V839H286.875V831.432H290.656C291.128 831.432 291.541 831.485 291.894 831.591C292.247 831.696 292.541 831.847 292.777 832.042C293.014 832.237 293.19 832.473 293.306 832.751C293.423 833.028 293.481 833.341 293.481 833.688C293.481 833.971 293.439 834.23 293.355 834.464C293.271 834.699 293.154 834.907 293.006 835.09C292.857 835.272 292.681 835.426 292.477 835.549C292.273 835.673 292.051 835.763 291.811 835.82L293.857 839H292.074ZM291.886 833.752C291.886 833.384 291.765 833.11 291.523 832.931C291.282 832.752 290.937 832.662 290.489 832.662H288.459V834.896H290.532C290.769 834.896 290.972 834.869 291.142 834.813C291.312 834.758 291.452 834.679 291.561 834.577C291.67 834.475 291.752 834.354 291.805 834.214C291.859 834.075 291.886 833.921 291.886 833.752ZM297.018 839V831.432H302.97V832.657H298.603V834.558H302.642V835.783H298.603V837.775H303.19V839H297.018Z" fill="#4B5563" fill-opacity="0.4"/>
<path d="M79.577 388.445V396.742L83.4969 397.217V398.5H71.2449V397.217L74.0399 396.742V376.668L71.0164 376.211V374.928H90.6688V381.273H89.0164L88.4539 377.107C87.8797 377.025 86.9305 376.964 85.6063 376.923C84.282 376.882 83.2391 376.861 82.4774 376.861H79.577V386.512H85.325L85.8699 383.523H87.4344V391.469H85.8699L85.325 388.445H79.577ZM99.5949 385.404C100.861 383.998 101.994 382.987 102.996 382.372C103.998 381.757 104.915 381.449 105.747 381.449H106.696V387.479H105.712L104.675 385.264C103.937 385.264 103.099 385.425 102.161 385.747C101.224 386.069 100.398 386.447 99.6828 386.881V396.918L102.337 397.34V398.5H92.4582V397.34L94.6027 396.918V383.559L92.4582 383.137V381.977H99.4016L99.5949 385.404ZM114.603 381.572C116.841 381.572 118.462 382.17 119.463 383.365C120.465 384.561 120.966 386.418 120.966 388.938V390.379H112.3V390.66C112.3 392.406 112.441 393.648 112.722 394.387C113.004 395.125 113.461 395.688 114.093 396.074C114.726 396.461 115.593 396.654 116.695 396.654C117.726 396.654 119.027 396.484 120.597 396.145V397.498C119.953 397.885 119.118 398.204 118.092 398.456C117.067 398.708 116.068 398.834 115.095 398.834C112.388 398.834 110.387 398.128 109.092 396.716C107.797 395.304 107.15 393.115 107.15 390.15C107.15 387.268 107.768 385.117 109.005 383.699C110.241 382.281 112.107 381.572 114.603 381.572ZM114.41 383.348C113.707 383.348 113.182 383.729 112.837 384.49C112.491 385.252 112.318 386.6 112.318 388.533H116.15C116.15 386.963 116.097 385.858 115.992 385.22C115.886 384.581 115.708 384.109 115.456 383.805C115.204 383.5 114.855 383.348 114.41 383.348ZM134.129 393.262C134.129 395.102 133.563 396.493 132.433 397.437C131.302 398.38 129.658 398.852 127.502 398.852C126.611 398.852 125.63 398.755 124.558 398.562C123.485 398.368 122.674 398.166 122.123 397.955V393.455H123.283L123.951 395.775C124.361 396.186 124.9 396.528 125.568 396.804C126.236 397.079 126.916 397.217 127.607 397.217C128.627 397.217 129.386 396.997 129.884 396.558C130.382 396.118 130.631 395.559 130.631 394.879C130.631 394.234 130.391 393.719 129.91 393.332C129.43 392.945 128.381 392.5 126.764 391.996C125.064 391.469 123.86 390.748 123.151 389.834C122.442 388.92 122.088 387.795 122.088 386.459C122.088 384.959 122.645 383.764 123.758 382.873C124.871 381.982 126.307 381.537 128.064 381.537C129.271 381.537 130.895 381.707 132.934 382.047V386.283H131.773L131.211 384.35C130.871 384.01 130.394 383.731 129.778 383.515C129.163 383.298 128.58 383.189 128.029 383.189C127.186 383.189 126.562 383.362 126.157 383.708C125.753 384.054 125.551 384.525 125.551 385.123C125.551 385.744 125.803 386.254 126.307 386.652C126.811 387.051 127.848 387.484 129.418 387.953C131.129 388.48 132.342 389.175 133.057 390.036C133.771 390.897 134.129 391.973 134.129 393.262ZM141.772 380.676C141.772 381.449 141.737 382.363 141.666 383.418L142.879 382.803C144.543 381.959 146.038 381.537 147.362 381.537C150.409 381.537 151.932 383.16 151.932 386.406V396.918L153.584 397.34V398.5H145.375V397.34L146.852 396.918V387.092C146.852 386.107 146.644 385.34 146.228 384.789C145.812 384.238 145.217 383.963 144.444 383.963C143.553 383.963 142.663 384.162 141.772 384.561V396.918L143.284 397.34V398.5H135.075V397.34L136.692 396.918V375.104L135.004 374.682V373.521H141.772V380.676ZM166.128 398.5V397.217L169.872 396.742V376.791H168.976C166.292 376.791 164.405 376.908 163.316 377.143L162.841 381.52H161.241V374.928H184.146V381.52H182.529L182.054 377.143C181.081 376.932 179.159 376.826 176.288 376.826H175.427V396.742L179.171 397.217V398.5H166.128ZM189.222 385.404C190.488 383.998 191.622 382.987 192.624 382.372C193.626 381.757 194.543 381.449 195.375 381.449H196.324V387.479H195.339L194.302 385.264C193.564 385.264 192.726 385.425 191.789 385.747C190.851 386.069 190.025 386.447 189.31 386.881V396.918L191.964 397.34V398.5H182.086V397.34L184.23 396.918V383.559L182.086 383.137V381.977H189.029L189.222 385.404ZM205.795 381.607C209.932 381.607 212 383.131 212 386.178V396.918L213.652 397.34V398.5H207.57L207.184 397.234C206.27 397.855 205.443 398.28 204.705 398.509C203.967 398.737 203.223 398.852 202.473 398.852C199.063 398.852 197.357 397.211 197.357 393.93C197.357 392.688 197.609 391.694 198.113 390.95C198.617 390.206 199.344 389.655 200.293 389.298C201.242 388.94 202.736 388.738 204.775 388.691L206.92 388.639V386.23C206.92 384.238 206.105 383.242 204.477 383.242C203.492 383.242 202.391 383.547 201.172 384.156L200.504 386.213H199.344V382.223C201.113 381.953 202.414 381.783 203.246 381.713C204.078 381.643 204.928 381.607 205.795 381.607ZM206.92 390.203L205.443 390.256C204.307 390.303 203.519 390.602 203.079 391.152C202.64 391.703 202.42 392.594 202.42 393.824C202.42 394.82 202.596 395.553 202.947 396.021C203.299 396.49 203.756 396.725 204.318 396.725C205.115 396.725 205.982 396.52 206.92 396.109V390.203ZM228.379 397.498C227.852 397.92 227.122 398.248 226.191 398.482C225.259 398.717 224.301 398.834 223.317 398.834C220.375 398.834 218.175 398.125 216.716 396.707C215.257 395.289 214.528 393.121 214.528 390.203C214.528 388.387 214.859 386.831 215.521 385.536C216.183 384.241 217.129 383.251 218.36 382.565C219.59 381.88 221.02 381.537 222.649 381.537C224.289 381.537 226.077 381.742 228.01 382.152V387.039H226.745L226.006 384.139C225.608 383.846 225.215 383.641 224.829 383.523C224.442 383.406 223.932 383.348 223.299 383.348C222.608 383.348 221.981 383.623 221.418 384.174C220.856 384.725 220.419 385.501 220.109 386.503C219.798 387.505 219.643 388.703 219.643 390.098C219.643 392.453 220.009 394.135 220.742 395.143C221.474 396.15 222.637 396.654 224.231 396.654C225.848 396.654 227.231 396.484 228.379 396.145V397.498ZM236.04 390.572L242.491 383.541L240.733 383.137V381.977H247.026V383.137L245.128 383.523L241.19 387.672L246.868 396.918L248.345 397.34V398.5H240.399V397.34L241.366 396.918L238.061 391.135L236.04 392.541V396.918L237.675 397.34V398.5H229.395V397.34L230.96 396.918V375.104L229.272 374.682V373.521H236.04V390.572ZM261.134 397.217V398.5H253.963V397.217L255.72 396.742L264.105 374.734H269.203L277.552 396.742L279.345 397.217V398.5H268.851V397.217L271.576 396.742L269.326 390.643H260.273L258.111 396.742L261.134 397.217ZM264.879 378.285L260.994 388.709H268.658L264.879 378.285ZM288.482 396.742L291.506 397.199V398.5H279.922V397.199L282.945 396.742V376.686L279.922 376.211V374.928H291.506V376.211L288.482 376.686V396.742Z" fill="#111827"/>
<path d="M66.0541 430.843C66.0541 432.015 65.6718 432.946 64.9072 433.638C64.1425 434.329 63.1039 434.675 61.7914 434.675H58.1528V439.5H56.4741V427.116H61.686C63.0746 427.116 64.1498 427.441 64.9116 428.092C65.6733 428.742 66.0541 429.659 66.0541 430.843ZM64.3666 430.86C64.3666 429.261 63.4057 428.461 61.4838 428.461H58.1528V433.348H61.5541C63.4291 433.348 64.3666 432.519 64.3666 430.86ZM68.2514 439.5V432.205C68.2514 431.537 68.2338 430.799 68.1987 429.99H69.6928C69.7397 431.068 69.7631 431.716 69.7631 431.933H69.7983C70.0502 431.118 70.3403 430.562 70.6684 430.263C70.9965 429.964 71.4594 429.814 72.0571 429.814C72.268 429.814 72.4819 429.844 72.6987 429.902V431.353C72.4877 431.294 72.2065 431.265 71.8549 431.265C71.1987 431.265 70.6977 431.547 70.352 432.113C70.0063 432.678 69.8334 433.488 69.8334 434.543V439.5H68.2514ZM75.4233 435.079C75.4233 436.169 75.6489 437.01 76.1 437.602C76.5512 438.193 77.2104 438.489 78.0776 438.489C78.7631 438.489 79.3124 438.352 79.7255 438.076C80.1386 437.801 80.4184 437.452 80.5649 437.03L81.9536 437.426C81.3852 438.926 80.0932 439.676 78.0776 439.676C76.6713 439.676 75.6005 439.257 74.8652 438.419C74.1298 437.581 73.7621 436.336 73.7621 434.684C73.7621 433.113 74.1298 431.909 74.8652 431.071C75.6005 430.233 76.6508 429.814 78.0161 429.814C80.811 429.814 82.2084 431.499 82.2084 434.868V435.079H75.4233ZM80.5737 433.866C80.4858 432.864 80.2309 432.133 79.809 431.673C79.3871 431.213 78.7807 430.983 77.9897 430.983C77.2221 430.983 76.6142 431.24 76.166 431.752C75.7177 432.265 75.476 432.97 75.4409 433.866H80.5737ZM85.4252 434.701C85.4252 435.967 85.6245 436.904 86.0229 437.514C86.4213 438.123 87.0219 438.428 87.8246 438.428C88.3871 438.428 88.8574 438.275 89.2353 437.971C89.6132 437.666 89.8461 437.197 89.934 436.564L91.5336 436.67C91.4106 437.584 91.0209 438.313 90.3647 438.858C89.7084 439.403 88.8764 439.676 87.8686 439.676C86.5385 439.676 85.5234 439.255 84.8232 438.415C84.123 437.574 83.7729 436.348 83.7729 434.736C83.7729 433.137 84.1245 431.917 84.8276 431.076C85.5307 430.235 86.5385 429.814 87.851 429.814C88.8237 429.814 89.6308 430.066 90.2724 430.57C90.914 431.074 91.3168 431.769 91.4809 432.653L89.8549 432.776C89.7729 432.249 89.5649 431.83 89.2309 431.52C88.8969 431.209 88.4223 431.054 87.8071 431.054C86.9692 431.054 86.3627 431.332 85.9877 431.889C85.6127 432.445 85.4252 433.383 85.4252 434.701ZM93.2123 427.969V426.457H94.7944V427.969H93.2123ZM93.2123 439.5V429.99H94.7944V439.5H93.2123ZM104.357 436.872C104.357 437.769 104.018 438.46 103.342 438.946C102.665 439.433 101.717 439.676 100.498 439.676C99.3149 439.676 98.4023 439.481 97.7607 439.091C97.1191 438.702 96.7016 438.094 96.5082 437.268L97.9057 436.995C98.0405 437.505 98.3188 437.878 98.7407 438.116C99.1625 438.353 99.7485 438.472 100.498 438.472C101.301 438.472 101.889 438.349 102.261 438.103C102.633 437.856 102.819 437.487 102.819 436.995C102.819 436.62 102.69 436.315 102.432 436.081C102.174 435.847 101.758 435.653 101.184 435.501L100.05 435.202C99.142 434.968 98.496 434.738 98.1122 434.512C97.7285 434.287 97.4282 434.013 97.2114 433.69C96.9946 433.368 96.8862 432.973 96.8862 432.504C96.8862 431.637 97.1953 430.976 97.8134 430.522C98.4316 430.068 99.3325 429.841 100.516 429.841C101.565 429.841 102.398 430.025 103.017 430.395C103.635 430.764 104.026 431.355 104.19 432.17L102.766 432.346C102.678 431.924 102.442 431.6 102.059 431.375C101.675 431.149 101.161 431.036 100.516 431.036C99.8012 431.036 99.2739 431.145 98.934 431.361C98.5942 431.578 98.4243 431.906 98.4243 432.346C98.4243 432.615 98.4946 432.838 98.6352 433.014C98.7758 433.189 98.9838 433.339 99.2592 433.462C99.5346 433.585 100.115 433.755 100.999 433.972C101.837 434.183 102.441 434.377 102.81 434.556C103.179 434.735 103.471 434.933 103.685 435.149C103.898 435.366 104.064 435.617 104.181 435.901C104.298 436.185 104.357 436.509 104.357 436.872ZM106.211 427.969V426.457H107.793V427.969H106.211ZM106.211 439.5V429.99H107.793V439.5H106.211ZM118.261 434.736C118.261 436.4 117.895 437.64 117.163 438.454C116.43 439.269 115.367 439.676 113.972 439.676C112.583 439.676 111.535 439.252 110.826 438.406C110.117 437.559 109.762 436.336 109.762 434.736C109.762 431.455 111.183 429.814 114.025 429.814C115.478 429.814 116.547 430.214 117.233 431.014C117.918 431.814 118.261 433.055 118.261 434.736ZM116.6 434.736C116.6 433.424 116.405 432.47 116.016 431.875C115.626 431.281 114.971 430.983 114.051 430.983C113.125 430.983 112.456 431.287 112.043 431.893C111.63 432.5 111.423 433.447 111.423 434.736C111.423 435.99 111.627 436.932 112.034 437.562C112.441 438.192 113.081 438.507 113.955 438.507C114.904 438.507 115.582 438.202 115.989 437.593C116.396 436.983 116.6 436.031 116.6 434.736ZM126.268 439.5V433.471C126.268 432.844 126.206 432.357 126.083 432.012C125.96 431.666 125.764 431.417 125.495 431.265C125.225 431.112 124.83 431.036 124.308 431.036C123.546 431.036 122.946 431.297 122.506 431.818C122.067 432.34 121.847 433.063 121.847 433.989V439.5H120.265V432.021C120.265 430.913 120.247 430.236 120.212 429.99H121.706C121.712 430.02 121.718 430.099 121.724 430.228C121.73 430.356 121.737 430.504 121.746 430.671C121.755 430.838 121.765 431.153 121.777 431.616H121.803C122.166 430.96 122.587 430.496 123.064 430.223C123.542 429.951 124.135 429.814 124.844 429.814C125.887 429.814 126.65 430.074 127.134 430.592C127.617 431.111 127.859 431.968 127.859 433.163V439.5H126.268ZM137.202 431.142V439.5H135.62V431.142H134.284V429.99H135.62V428.918C135.62 428.051 135.81 427.427 136.191 427.046C136.572 426.665 137.155 426.475 137.94 426.475C138.379 426.475 138.751 426.51 139.056 426.58V427.784C138.792 427.737 138.558 427.714 138.353 427.714C137.949 427.714 137.656 427.816 137.474 428.021C137.292 428.227 137.202 428.599 137.202 429.138V429.99H139.056V431.142H137.202ZM148.285 434.736C148.285 436.4 147.918 437.64 147.186 438.454C146.454 439.269 145.39 439.676 143.996 439.676C142.607 439.676 141.558 439.252 140.849 438.406C140.14 437.559 139.786 436.336 139.786 434.736C139.786 431.455 141.206 429.814 144.048 429.814C145.501 429.814 146.571 430.214 147.256 431.014C147.942 431.814 148.285 433.055 148.285 434.736ZM146.623 434.736C146.623 433.424 146.429 432.47 146.039 431.875C145.649 431.281 144.995 430.983 144.075 430.983C143.149 430.983 142.479 431.287 142.066 431.893C141.653 432.5 141.447 433.447 141.447 434.736C141.447 435.99 141.65 436.932 142.058 437.562C142.465 438.192 143.105 438.507 143.978 438.507C144.927 438.507 145.605 438.202 146.013 437.593C146.42 436.983 146.623 436.031 146.623 434.736ZM158.295 434.736C158.295 436.4 157.929 437.64 157.197 438.454C156.464 439.269 155.401 439.676 154.006 439.676C152.618 439.676 151.569 439.252 150.86 438.406C150.151 437.559 149.796 436.336 149.796 434.736C149.796 431.455 151.217 429.814 154.059 429.814C155.512 429.814 156.581 430.214 157.267 431.014C157.953 431.814 158.295 433.055 158.295 434.736ZM156.634 434.736C156.634 433.424 156.439 432.47 156.05 431.875C155.66 431.281 155.005 430.983 154.085 430.983C153.16 430.983 152.49 431.287 152.077 431.893C151.664 432.5 151.457 433.447 151.457 434.736C151.457 435.99 151.661 436.932 152.068 437.562C152.476 438.192 153.116 438.507 153.989 438.507C154.938 438.507 155.616 438.202 156.023 437.593C156.431 436.983 156.634 436.031 156.634 434.736ZM166.267 437.971C165.974 438.58 165.586 439.017 165.102 439.28C164.619 439.544 164.02 439.676 163.305 439.676C162.104 439.676 161.221 439.271 160.655 438.463C160.09 437.654 159.807 436.43 159.807 434.789C159.807 431.473 160.973 429.814 163.305 429.814C164.026 429.814 164.626 429.946 165.107 430.21C165.587 430.474 165.974 430.893 166.267 431.467H166.285L166.267 430.403V426.457H167.849V437.54C167.849 438.53 167.867 439.184 167.902 439.5H166.39C166.372 439.406 166.353 439.189 166.333 438.85C166.312 438.51 166.302 438.217 166.302 437.971H166.267ZM161.468 434.736C161.468 436.066 161.644 437.019 161.996 437.593C162.347 438.167 162.918 438.454 163.709 438.454C164.606 438.454 165.256 438.144 165.661 437.522C166.065 436.901 166.267 435.938 166.267 434.631C166.267 433.371 166.065 432.448 165.661 431.862C165.256 431.276 164.612 430.983 163.727 430.983C162.93 430.983 162.354 431.278 162 431.867C161.645 432.456 161.468 433.412 161.468 434.736ZM178.932 439.43C178.411 439.57 177.877 439.641 177.332 439.641C176.067 439.641 175.434 438.923 175.434 437.487V431.142H174.335V429.99H175.496L175.961 427.863H177.016V429.99H178.774V431.142H177.016V437.145C177.016 437.602 177.091 437.922 177.24 438.107C177.39 438.292 177.649 438.384 178.018 438.384C178.229 438.384 178.534 438.343 178.932 438.261V439.43ZM180.312 439.5V432.205C180.312 431.537 180.294 430.799 180.259 429.99H181.753C181.8 431.068 181.824 431.716 181.824 431.933H181.859C182.111 431.118 182.401 430.562 182.729 430.263C183.057 429.964 183.52 429.814 184.118 429.814C184.329 429.814 184.542 429.844 184.759 429.902V431.353C184.548 431.294 184.267 431.265 183.915 431.265C183.259 431.265 182.758 431.547 182.413 432.113C182.067 432.678 181.894 433.488 181.894 434.543V439.5H180.312ZM188.697 439.676C187.742 439.676 187.024 439.424 186.543 438.92C186.063 438.416 185.823 437.725 185.823 436.846C185.823 435.861 186.146 435.105 186.794 434.578C187.441 434.051 188.486 433.77 189.927 433.734L192.063 433.699V433.181C192.063 432.407 191.899 431.854 191.571 431.52C191.243 431.186 190.727 431.019 190.024 431.019C189.315 431.019 188.799 431.139 188.477 431.379C188.155 431.619 187.961 432.003 187.897 432.53L186.245 432.381C186.514 430.67 187.786 429.814 190.059 429.814C191.254 429.814 192.154 430.088 192.757 430.636C193.361 431.184 193.663 431.977 193.663 433.014V437.109C193.663 437.578 193.724 437.931 193.847 438.168C193.97 438.406 194.205 438.524 194.55 438.524C194.703 438.524 194.875 438.504 195.069 438.463V439.447C194.67 439.541 194.263 439.588 193.847 439.588C193.261 439.588 192.835 439.434 192.568 439.126C192.302 438.819 192.151 438.337 192.116 437.681H192.063C191.659 438.407 191.188 438.921 190.652 439.223C190.116 439.525 189.464 439.676 188.697 439.676ZM189.057 438.489C189.637 438.489 190.153 438.357 190.604 438.094C191.055 437.83 191.411 437.468 191.672 437.008C191.933 436.548 192.063 436.075 192.063 435.589V434.807L190.331 434.842C189.587 434.854 189.023 434.93 188.64 435.07C188.256 435.211 187.961 435.428 187.756 435.721C187.551 436.014 187.449 436.397 187.449 436.872C187.449 437.388 187.588 437.786 187.866 438.067C188.144 438.349 188.541 438.489 189.057 438.489ZM197.486 434.701C197.486 435.967 197.685 436.904 198.083 437.514C198.482 438.123 199.082 438.428 199.885 438.428C200.448 438.428 200.918 438.275 201.296 437.971C201.674 437.666 201.907 437.197 201.995 436.564L203.594 436.67C203.471 437.584 203.081 438.313 202.425 438.858C201.769 439.403 200.937 439.676 199.929 439.676C198.599 439.676 197.584 439.255 196.884 438.415C196.184 437.574 195.833 436.348 195.833 434.736C195.833 433.137 196.185 431.917 196.888 431.076C197.591 430.235 198.599 429.814 199.912 429.814C200.884 429.814 201.691 430.066 202.333 430.57C202.975 431.074 203.377 431.769 203.541 432.653L201.915 432.776C201.833 432.249 201.625 431.83 201.291 431.52C200.957 431.209 200.483 431.054 199.868 431.054C199.03 431.054 198.423 431.332 198.048 431.889C197.673 432.445 197.486 433.383 197.486 434.701ZM211.241 439.5L208.024 435.158L206.864 436.116V439.5H205.282V426.457H206.864V434.604L211.039 429.99H212.893L209.035 434.077L213.095 439.5H211.241ZM214.273 427.969V426.457H215.855V427.969H214.273ZM214.273 439.5V429.99H215.855V439.5H214.273ZM224.319 439.5V433.471C224.319 432.844 224.257 432.357 224.134 432.012C224.011 431.666 223.815 431.417 223.545 431.265C223.276 431.112 222.88 431.036 222.359 431.036C221.597 431.036 220.997 431.297 220.557 431.818C220.118 432.34 219.898 433.063 219.898 433.989V439.5H218.316V432.021C218.316 430.913 218.298 430.236 218.263 429.99H219.757C219.763 430.02 219.769 430.099 219.775 430.228C219.781 430.356 219.788 430.504 219.797 430.671C219.806 430.838 219.816 431.153 219.828 431.616H219.854C220.217 430.96 220.638 430.496 221.115 430.223C221.593 429.951 222.186 429.814 222.895 429.814C223.938 429.814 224.701 430.074 225.185 430.592C225.668 431.111 225.91 431.968 225.91 433.163V439.5H224.319ZM231.895 443.235C230.858 443.235 230.032 443.032 229.416 442.625C228.801 442.217 228.406 441.639 228.23 440.889L229.821 440.66C229.926 441.1 230.159 441.438 230.519 441.675C230.88 441.913 231.353 442.031 231.939 442.031C233.515 442.031 234.303 441.108 234.303 439.263V437.733H234.286C233.987 438.343 233.577 438.801 233.055 439.109C232.534 439.417 231.924 439.57 231.227 439.57C230.061 439.57 229.204 439.184 228.656 438.41C228.108 437.637 227.834 436.421 227.834 434.763C227.834 433.081 228.129 431.84 228.718 431.041C229.307 430.241 230.202 429.841 231.403 429.841C232.077 429.841 232.661 429.995 233.156 430.302C233.651 430.61 234.034 431.048 234.303 431.616H234.321C234.321 431.44 234.332 431.136 234.356 430.702C234.379 430.269 234.403 430.031 234.426 429.99H235.929C235.894 430.307 235.876 430.963 235.876 431.959V439.228C235.876 441.899 234.549 443.235 231.895 443.235ZM234.303 434.745C234.303 433.972 234.198 433.305 233.987 432.746C233.776 432.186 233.478 431.758 233.095 431.462C232.711 431.167 232.276 431.019 231.789 431.019C230.981 431.019 230.392 431.312 230.023 431.897C229.654 432.483 229.469 433.433 229.469 434.745C229.469 436.046 229.642 436.98 229.988 437.549C230.333 438.117 230.925 438.401 231.763 438.401C232.261 438.401 232.704 438.255 233.09 437.962C233.477 437.669 233.776 437.249 233.987 436.701C234.198 436.153 234.303 435.501 234.303 434.745ZM245.263 431.142V439.5H243.681V431.142H242.345V429.99H243.681V428.918C243.681 428.051 243.872 427.427 244.252 427.046C244.633 426.665 245.216 426.475 246.001 426.475C246.441 426.475 246.813 426.51 247.118 426.58V427.784C246.854 427.737 246.62 427.714 246.414 427.714C246.01 427.714 245.717 427.816 245.536 428.021C245.354 428.227 245.263 428.599 245.263 429.138V429.99H247.118V431.142H245.263ZM256.346 434.736C256.346 436.4 255.98 437.64 255.247 438.454C254.515 439.269 253.452 439.676 252.057 439.676C250.668 439.676 249.62 439.252 248.911 438.406C248.202 437.559 247.847 436.336 247.847 434.736C247.847 431.455 249.268 429.814 252.11 429.814C253.563 429.814 254.632 430.214 255.318 431.014C256.003 431.814 256.346 433.055 256.346 434.736ZM254.685 434.736C254.685 433.424 254.49 432.47 254.101 431.875C253.711 431.281 253.056 430.983 252.136 430.983C251.21 430.983 250.541 431.287 250.128 431.893C249.715 432.5 249.508 433.447 249.508 434.736C249.508 435.99 249.712 436.932 250.119 437.562C250.526 438.192 251.166 438.507 252.039 438.507C252.989 438.507 253.667 438.202 254.074 437.593C254.481 436.983 254.685 436.031 254.685 434.736ZM258.35 439.5V432.205C258.35 431.537 258.332 430.799 258.297 429.99H259.791C259.838 431.068 259.862 431.716 259.862 431.933H259.897C260.149 431.118 260.439 430.562 260.767 430.263C261.095 429.964 261.558 429.814 262.156 429.814C262.367 429.814 262.581 429.844 262.797 429.902V431.353C262.586 431.294 262.305 431.265 261.954 431.265C261.297 431.265 260.796 431.547 260.451 432.113C260.105 432.678 259.932 433.488 259.932 434.543V439.5H258.35ZM270.883 431.616C271.223 430.995 271.632 430.54 272.109 430.25C272.587 429.959 273.192 429.814 273.924 429.814C274.956 429.814 275.716 430.071 276.205 430.583C276.694 431.096 276.939 431.956 276.939 433.163V439.5H275.348V433.471C275.348 432.803 275.287 432.306 275.164 431.981C275.04 431.656 274.838 431.417 274.557 431.265C274.276 431.112 273.886 431.036 273.388 431.036C272.644 431.036 272.048 431.294 271.6 431.81C271.151 432.325 270.927 433.02 270.927 433.893V439.5H269.345V426.457H270.927V429.85C270.927 430.207 270.917 430.576 270.896 430.957C270.876 431.338 270.863 431.558 270.857 431.616H270.883ZM279.312 427.969V426.457H280.894V427.969H279.312ZM279.312 439.5V429.99H280.894V439.5H279.312ZM286.923 443.235C285.886 443.235 285.06 443.032 284.445 442.625C283.83 442.217 283.434 441.639 283.258 440.889L284.849 440.66C284.955 441.1 285.187 441.438 285.548 441.675C285.908 441.913 286.381 442.031 286.967 442.031C288.543 442.031 289.331 441.108 289.331 439.263V437.733H289.314C289.015 438.343 288.605 438.801 288.083 439.109C287.562 439.417 286.953 439.57 286.255 439.57C285.089 439.57 284.232 439.184 283.685 438.41C283.137 437.637 282.863 436.421 282.863 434.763C282.863 433.081 283.157 431.84 283.746 431.041C284.335 430.241 285.23 429.841 286.431 429.841C287.105 429.841 287.689 429.995 288.185 430.302C288.68 430.61 289.062 431.048 289.331 431.616H289.349C289.349 431.44 289.361 431.136 289.384 430.702C289.408 430.269 289.431 430.031 289.455 429.99H290.957C290.922 430.307 290.905 430.963 290.905 431.959V439.228C290.905 441.899 289.578 443.235 286.923 443.235ZM289.331 434.745C289.331 433.972 289.226 433.305 289.015 432.746C288.804 432.186 288.507 431.758 288.123 431.462C287.739 431.167 287.304 431.019 286.818 431.019C286.009 431.019 285.42 431.312 285.051 431.897C284.682 432.483 284.497 433.433 284.497 434.745C284.497 436.046 284.67 436.98 285.016 437.549C285.362 438.117 285.954 438.401 286.791 438.401C287.289 438.401 287.732 438.255 288.119 437.962C288.505 437.669 288.804 437.249 289.015 436.701C289.226 436.153 289.331 435.501 289.331 434.745ZM294.904 431.616C295.244 430.995 295.652 430.54 296.13 430.25C296.607 429.959 297.212 429.814 297.945 429.814C298.976 429.814 299.736 430.071 300.226 430.583C300.715 431.096 300.959 431.956 300.959 433.163V439.5H299.369V433.471C299.369 432.803 299.307 432.306 299.184 431.981C299.061 431.656 298.859 431.417 298.578 431.265C298.296 431.112 297.907 431.036 297.409 431.036C296.664 431.036 296.068 431.294 295.62 431.81C295.172 432.325 294.948 433.02 294.948 433.893V439.5H293.366V426.457H294.948V429.85C294.948 430.207 294.937 430.576 294.917 430.957C294.896 431.338 294.883 431.558 294.877 431.616H294.904ZM302.928 435.422V434.016H307.323V435.422H302.928ZM114.781 461.701C114.781 465.018 113.615 466.676 111.283 466.676C109.818 466.676 108.833 466.125 108.33 465.023H108.286C108.309 465.07 108.321 465.568 108.321 466.518V470.235H106.739V458.933C106.739 457.954 106.721 457.307 106.686 456.99H108.215C108.221 457.014 108.23 457.097 108.242 457.241C108.253 457.384 108.267 457.605 108.281 457.904C108.296 458.203 108.303 458.408 108.303 458.52H108.338C108.62 457.934 108.992 457.504 109.455 457.232C109.917 456.959 110.527 456.823 111.283 456.823C112.455 456.823 113.331 457.216 113.911 458.001C114.491 458.786 114.781 460.02 114.781 461.701ZM113.12 461.736C113.12 460.412 112.941 459.466 112.583 458.897C112.226 458.329 111.658 458.045 110.878 458.045C110.251 458.045 109.761 458.177 109.406 458.44C109.052 458.704 108.782 459.116 108.598 459.675C108.413 460.235 108.321 460.963 108.321 461.859C108.321 463.107 108.52 464.027 108.918 464.619C109.317 465.211 109.964 465.507 110.861 465.507C111.646 465.507 112.219 465.218 112.579 464.641C112.939 464.064 113.12 463.096 113.12 461.736ZM117.962 462.079C117.962 463.169 118.188 464.01 118.639 464.602C119.09 465.193 119.749 465.489 120.617 465.489C121.302 465.489 121.852 465.352 122.265 465.076C122.678 464.801 122.957 464.452 123.104 464.03L124.493 464.426C123.924 465.926 122.632 466.676 120.617 466.676C119.21 466.676 118.14 466.257 117.404 465.419C116.669 464.581 116.301 463.336 116.301 461.684C116.301 460.113 116.669 458.909 117.404 458.071C118.14 457.233 119.19 456.814 120.555 456.814C123.35 456.814 124.748 458.499 124.748 461.868V462.079H117.962ZM123.113 460.866C123.025 459.864 122.77 459.133 122.348 458.673C121.926 458.213 121.32 457.983 120.529 457.983C119.761 457.983 119.153 458.24 118.705 458.752C118.257 459.265 118.015 459.97 117.98 460.866H123.113ZM126.795 466.5V459.205C126.795 458.537 126.778 457.799 126.743 456.99H128.237C128.284 458.068 128.307 458.716 128.307 458.933H128.342C128.594 458.118 128.884 457.562 129.212 457.263C129.54 456.964 130.003 456.814 130.601 456.814C130.812 456.814 131.026 456.844 131.243 456.902V458.353C131.032 458.294 130.75 458.265 130.399 458.265C129.743 458.265 129.242 458.547 128.896 459.113C128.55 459.678 128.377 460.488 128.377 461.543V466.5H126.795ZM134.714 458.142V466.5H133.132V458.142H131.796V456.99H133.132V455.918C133.132 455.051 133.323 454.427 133.704 454.046C134.084 453.665 134.667 453.475 135.453 453.475C135.892 453.475 136.264 453.51 136.569 453.58V454.784C136.305 454.737 136.071 454.714 135.866 454.714C135.461 454.714 135.168 454.816 134.987 455.021C134.805 455.227 134.714 455.599 134.714 456.138V456.99H136.569V458.142H134.714ZM145.797 461.736C145.797 463.4 145.431 464.64 144.699 465.454C143.966 466.269 142.903 466.676 141.508 466.676C140.12 466.676 139.071 466.252 138.362 465.406C137.653 464.559 137.298 463.336 137.298 461.736C137.298 458.455 138.719 456.814 141.561 456.814C143.014 456.814 144.083 457.214 144.769 458.014C145.455 458.814 145.797 460.055 145.797 461.736ZM144.136 461.736C144.136 460.424 143.941 459.47 143.552 458.875C143.162 458.281 142.507 457.983 141.587 457.983C140.662 457.983 139.992 458.287 139.579 458.893C139.166 459.5 138.959 460.447 138.959 461.736C138.959 462.99 139.163 463.932 139.57 464.562C139.977 465.192 140.618 465.507 141.491 465.507C142.44 465.507 143.118 465.202 143.525 464.593C143.933 463.983 144.136 463.031 144.136 461.736ZM147.801 466.5V459.205C147.801 458.537 147.784 457.799 147.748 456.99H149.243C149.289 458.068 149.313 458.716 149.313 458.933H149.348C149.6 458.118 149.89 457.562 150.218 457.263C150.546 456.964 151.009 456.814 151.607 456.814C151.818 456.814 152.032 456.844 152.248 456.902V458.353C152.038 458.294 151.756 458.265 151.405 458.265C150.748 458.265 150.247 458.547 149.902 459.113C149.556 459.678 149.383 460.488 149.383 461.543V466.5H147.801ZM159.297 466.5V460.471C159.297 459.551 159.171 458.915 158.919 458.563C158.667 458.212 158.213 458.036 157.557 458.036C156.883 458.036 156.35 458.294 155.957 458.81C155.565 459.325 155.369 460.052 155.369 460.989V466.5H153.795V459.021C153.795 457.913 153.778 457.236 153.743 456.99H155.237C155.243 457.02 155.248 457.099 155.254 457.228C155.26 457.356 155.268 457.504 155.276 457.671C155.285 457.838 155.295 458.153 155.307 458.616H155.333C155.673 457.942 156.063 457.474 156.502 457.21C156.942 456.946 157.478 456.814 158.111 456.814C158.831 456.814 159.401 456.958 159.82 457.245C160.239 457.532 160.531 457.989 160.695 458.616H160.721C161.049 457.978 161.446 457.518 161.912 457.236C162.378 456.955 162.942 456.814 163.604 456.814C164.565 456.814 165.264 457.075 165.7 457.597C166.137 458.118 166.355 458.974 166.355 460.163V466.5H164.79V460.471C164.79 459.551 164.664 458.915 164.413 458.563C164.161 458.212 163.706 458.036 163.05 458.036C162.359 458.036 161.821 458.292 161.437 458.805C161.054 459.318 160.862 460.046 160.862 460.989V466.5H159.297ZM171.18 466.676C170.225 466.676 169.507 466.424 169.027 465.92C168.546 465.416 168.306 464.725 168.306 463.846C168.306 462.861 168.63 462.105 169.277 461.578C169.925 461.051 170.969 460.77 172.411 460.734L174.546 460.699V460.181C174.546 459.407 174.382 458.854 174.054 458.52C173.726 458.186 173.21 458.019 172.507 458.019C171.798 458.019 171.283 458.139 170.96 458.379C170.638 458.619 170.445 459.003 170.38 459.53L168.728 459.381C168.997 457.67 170.269 456.814 172.542 456.814C173.738 456.814 174.637 457.088 175.241 457.636C175.844 458.184 176.146 458.977 176.146 460.014V464.109C176.146 464.578 176.207 464.931 176.331 465.168C176.454 465.406 176.688 465.524 177.034 465.524C177.186 465.524 177.359 465.504 177.552 465.463V466.447C177.154 466.541 176.747 466.588 176.331 466.588C175.745 466.588 175.318 466.434 175.052 466.126C174.785 465.819 174.634 465.337 174.599 464.681H174.546C174.142 465.407 173.672 465.921 173.136 466.223C172.6 466.525 171.948 466.676 171.18 466.676ZM171.54 465.489C172.121 465.489 172.636 465.357 173.087 465.094C173.539 464.83 173.894 464.468 174.155 464.008C174.416 463.548 174.546 463.075 174.546 462.589V461.807L172.815 461.842C172.071 461.854 171.507 461.93 171.123 462.07C170.739 462.211 170.445 462.428 170.24 462.721C170.035 463.014 169.932 463.397 169.932 463.872C169.932 464.388 170.071 464.786 170.35 465.067C170.628 465.349 171.025 465.489 171.54 465.489ZM184.803 466.5V460.471C184.803 459.844 184.742 459.357 184.619 459.012C184.496 458.666 184.299 458.417 184.03 458.265C183.76 458.112 183.365 458.036 182.843 458.036C182.081 458.036 181.481 458.297 181.041 458.818C180.602 459.34 180.382 460.063 180.382 460.989V466.5H178.8V459.021C178.8 457.913 178.783 457.236 178.747 456.99H180.242C180.247 457.02 180.253 457.099 180.259 457.228C180.265 457.356 180.272 457.504 180.281 457.671C180.29 457.838 180.3 458.153 180.312 458.616H180.338C180.702 457.96 181.122 457.496 181.6 457.223C182.077 456.951 182.67 456.814 183.379 456.814C184.422 456.814 185.185 457.074 185.669 457.592C186.152 458.111 186.394 458.968 186.394 460.163V466.5H184.803ZM189.98 461.701C189.98 462.967 190.179 463.904 190.578 464.514C190.976 465.123 191.577 465.428 192.379 465.428C192.942 465.428 193.412 465.275 193.79 464.971C194.168 464.666 194.401 464.197 194.489 463.564L196.088 463.67C195.965 464.584 195.576 465.313 194.919 465.858C194.263 466.403 193.431 466.676 192.423 466.676C191.093 466.676 190.078 466.255 189.378 465.415C188.678 464.574 188.328 463.348 188.328 461.736C188.328 460.137 188.679 458.917 189.382 458.076C190.085 457.235 191.093 456.814 192.406 456.814C193.378 456.814 194.185 457.066 194.827 457.57C195.469 458.074 195.872 458.769 196.036 459.653L194.41 459.776C194.328 459.249 194.12 458.83 193.786 458.52C193.452 458.209 192.977 458.054 192.362 458.054C191.524 458.054 190.917 458.332 190.542 458.889C190.167 459.445 189.98 460.383 189.98 461.701ZM198.989 462.079C198.989 463.169 199.214 464.01 199.665 464.602C200.117 465.193 200.776 465.489 201.643 465.489C202.329 465.489 202.878 465.352 203.291 465.076C203.704 464.801 203.984 464.452 204.13 464.03L205.519 464.426C204.951 465.926 203.659 466.676 201.643 466.676C200.237 466.676 199.166 466.257 198.431 465.419C197.695 464.581 197.328 463.336 197.328 461.684C197.328 460.113 197.695 458.909 198.431 458.071C199.166 457.233 200.216 456.814 201.581 456.814C204.376 456.814 205.774 458.499 205.774 461.868V462.079H198.989ZM204.139 460.866C204.051 459.864 203.796 459.133 203.374 458.673C202.953 458.213 202.346 457.983 201.555 457.983C200.788 457.983 200.18 458.24 199.731 458.752C199.283 459.265 199.041 459.97 199.006 460.866H204.139ZM212.788 466.5V453.457H214.37V466.5H212.788ZM216.778 454.969V453.457H218.36V454.969H216.778ZM216.778 466.5V456.99H218.36V466.5H216.778ZM224.96 466.5H223.088L219.634 456.99H221.322L223.414 463.178C223.49 463.412 223.692 464.106 224.02 465.261L224.328 464.232L224.67 463.195L226.832 456.99H228.511L224.96 466.5ZM229.777 454.969V453.457H231.359V454.969H229.777ZM229.777 466.5V456.99H231.359V466.5H229.777ZM239.823 466.5V460.471C239.823 459.844 239.761 459.357 239.638 459.012C239.515 458.666 239.319 458.417 239.049 458.265C238.78 458.112 238.384 458.036 237.863 458.036C237.101 458.036 236.5 458.297 236.061 458.818C235.622 459.34 235.402 460.063 235.402 460.989V466.5H233.82V459.021C233.82 457.913 233.802 457.236 233.767 456.99H235.261C235.267 457.02 235.273 457.099 235.279 457.228C235.285 457.356 235.292 457.504 235.301 457.671C235.31 457.838 235.32 458.153 235.331 458.616H235.358C235.721 457.96 236.142 457.496 236.619 457.223C237.097 456.951 237.69 456.814 238.399 456.814C239.442 456.814 240.205 457.074 240.688 457.592C241.172 458.111 241.414 458.968 241.414 460.163V466.5H239.823ZM247.399 470.235C246.362 470.235 245.536 470.032 244.92 469.625C244.305 469.217 243.91 468.639 243.734 467.889L245.325 467.66C245.43 468.1 245.663 468.438 246.023 468.675C246.384 468.913 246.857 469.031 247.443 469.031C249.019 469.031 249.807 468.108 249.807 466.263V464.733H249.789C249.491 465.343 249.081 465.801 248.559 466.109C248.038 466.417 247.428 466.57 246.731 466.57C245.565 466.57 244.708 466.184 244.16 465.41C243.612 464.637 243.338 463.421 243.338 461.763C243.338 460.081 243.633 458.84 244.222 458.041C244.81 457.241 245.706 456.841 246.907 456.841C247.581 456.841 248.165 456.995 248.66 457.302C249.155 457.61 249.538 458.048 249.807 458.616H249.825C249.825 458.44 249.836 458.136 249.86 457.702C249.883 457.269 249.907 457.031 249.93 456.99H251.433C251.398 457.307 251.38 457.963 251.38 458.959V466.228C251.38 468.899 250.053 470.235 247.399 470.235ZM249.807 461.745C249.807 460.972 249.702 460.305 249.491 459.746C249.28 459.186 248.982 458.758 248.599 458.462C248.215 458.167 247.78 458.019 247.293 458.019C246.485 458.019 245.896 458.312 245.527 458.897C245.158 459.483 244.973 460.433 244.973 461.745C244.973 463.046 245.146 463.98 245.492 464.549C245.837 465.117 246.429 465.401 247.267 465.401C247.765 465.401 248.207 465.255 248.594 464.962C248.981 464.669 249.28 464.249 249.491 463.701C249.702 463.153 249.807 462.501 249.807 461.745ZM254.237 466.5V464.575H255.951V466.5H254.237Z" fill="#4B5563"/>
<g filter="url(#filter0_d_3_1432)">
<rect x="139" y="207.5" width="112" height="112" rx="24" fill="white" shape-rendering="crispEdges"/>
<rect x="139.5" y="208" width="111" height="111" rx="23.5" stroke="#E5E7EB" shape-rendering="crispEdges"/>
<path d="M177.5 288.5C176.125 288.5 174.948 288.01 173.969 287.031C172.99 286.052 172.5 284.875 172.5 283.5V255.312C171.75 254.854 171.146 254.26 170.688 253.531C170.229 252.802 170 251.958 170 251V243.5C170 242.125 170.49 240.948 171.469 239.969C172.448 238.99 173.625 238.5 175 238.5H215C216.375 238.5 217.552 238.99 218.531 239.969C219.51 240.948 220 242.125 220 243.5V251C220 251.958 219.771 252.802 219.312 253.531C218.854 254.26 218.25 254.854 217.5 255.312V283.5C217.5 284.875 217.01 286.052 216.031 287.031C215.052 288.01 213.875 288.5 212.5 288.5H177.5V288.5M175 251H215V251V251V243.5V243.5V243.5H175V243.5V243.5V251V251V251V251M187.5 268.5H202.5V263.5H187.5V268.5V268.5" fill="#22C55E"/>
<rect x="207" y="275.5" width="26" height="26" rx="13" fill="#22C55E"/>
<rect x="207" y="275.5" width="26" height="26" rx="13" stroke="white" stroke-width="2"/>
<path d="M224.667 286.5L223.833 284.667L222 283.833L223.833 283L224.667 281.167L225.5 283L227.333 283.833L225.5 284.667L224.667 286.5V286.5M224.667 295.833L223.833 294L222 293.167L223.833 292.333L224.667 290.5L225.5 292.333L227.333 293.167L225.5 294L224.667 295.833V295.833M218 293.833L216.333 290.167L212.667 288.5L216.333 286.833L218 283.167L219.667 286.833L223.333 288.5L219.667 290.167L218 293.833V293.833" fill="white"/>
</g>
<rect x="35" y="515.5" width="320" height="60" rx="30" fill="#22C55E"/>
<g filter="url(#filter1_dd_3_1432)">
<rect x="35" y="515.5" width="320" height="60" rx="30" fill="white" fill-opacity="0.01" shape-rendering="crispEdges"/>
</g>
<path d="M132.542 551.5V539.116H135.135V549.496H141.779V551.5H132.542ZM145.787 551.676C145.33 551.676 144.921 551.613 144.561 551.487C144.201 551.361 143.894 551.176 143.643 550.933C143.391 550.69 143.197 550.39 143.062 550.032C142.928 549.675 142.86 549.268 142.86 548.811C142.86 548.248 142.958 547.775 143.155 547.391C143.351 547.007 143.619 546.697 143.959 546.459C144.299 546.222 144.697 546.049 145.154 545.941C145.611 545.833 146.098 545.775 146.613 545.77L148.661 545.734V545.251C148.661 544.905 148.63 544.617 148.569 544.385C148.507 544.154 148.418 543.965 148.301 543.818C148.184 543.672 148.039 543.568 147.866 543.506C147.693 543.445 147.495 543.414 147.272 543.414C147.067 543.414 146.884 543.435 146.723 543.476C146.562 543.517 146.423 543.588 146.306 543.691C146.188 543.793 146.093 543.931 146.02 544.104C145.947 544.277 145.895 544.495 145.866 544.759L143.291 544.636C143.361 544.22 143.49 543.84 143.678 543.498C143.865 543.155 144.124 542.857 144.456 542.605C144.787 542.354 145.194 542.159 145.677 542.021C146.161 541.883 146.727 541.814 147.378 541.814C147.97 541.814 148.497 541.888 148.96 542.034C149.423 542.181 149.815 542.399 150.138 542.689C150.46 542.979 150.706 543.335 150.876 543.757C151.046 544.179 151.131 544.668 151.131 545.225V548.688C151.131 548.91 151.141 549.109 151.162 549.285C151.182 549.461 151.22 549.609 151.276 549.729C151.332 549.849 151.411 549.94 151.513 550.001C151.616 550.063 151.749 550.094 151.913 550.094C152.101 550.094 152.282 550.076 152.458 550.041V551.377C152.311 551.412 152.18 551.444 152.062 551.474C151.945 551.503 151.828 551.526 151.711 551.544C151.594 551.562 151.469 551.576 151.337 551.588C151.206 551.6 151.052 551.605 150.876 551.605C150.255 551.605 149.796 551.453 149.5 551.148C149.205 550.844 149.027 550.396 148.969 549.804H148.916C148.588 550.396 148.167 550.855 147.655 551.184C147.142 551.512 146.519 551.676 145.787 551.676ZM148.661 547.097L147.395 547.114C147.132 547.126 146.881 547.148 146.644 547.18C146.407 547.212 146.199 547.28 146.02 547.382C145.841 547.485 145.699 547.633 145.594 547.826C145.488 548.02 145.436 548.283 145.436 548.617C145.436 549.068 145.54 549.404 145.748 549.624C145.956 549.843 146.232 549.953 146.578 549.953C146.894 549.953 147.182 549.886 147.439 549.751C147.697 549.616 147.915 549.439 148.094 549.219C148.273 549 148.412 548.746 148.512 548.459C148.611 548.172 148.661 547.879 148.661 547.58V547.097ZM155.93 541.99V547.325C155.93 547.694 155.959 548.033 156.018 548.34C156.076 548.648 156.173 548.912 156.308 549.131C156.442 549.351 156.617 549.522 156.831 549.646C157.044 549.769 157.307 549.83 157.617 549.83C157.916 549.83 158.187 549.764 158.43 549.632C158.673 549.5 158.883 549.313 159.059 549.07C159.234 548.827 159.371 548.537 159.467 548.2C159.564 547.863 159.612 547.492 159.612 547.088V541.99H162.082V549.373C162.082 549.572 162.083 549.782 162.086 550.001C162.089 550.221 162.095 550.429 162.104 550.625C162.113 550.822 162.122 550.998 162.13 551.153C162.139 551.308 162.146 551.424 162.152 551.5H159.797C159.791 551.43 159.781 551.317 159.766 551.162C159.751 551.006 159.74 550.835 159.731 550.647C159.722 550.46 159.713 550.272 159.705 550.085C159.696 549.897 159.691 549.739 159.691 549.61H159.647C159.319 550.331 158.902 550.855 158.395 551.184C157.888 551.512 157.286 551.676 156.589 551.676C156.02 551.676 155.537 551.582 155.139 551.395C154.74 551.207 154.416 550.951 154.167 550.625C153.918 550.3 153.738 549.915 153.627 549.47C153.516 549.024 153.46 548.544 153.46 548.028V541.99H155.93ZM170.757 551.5V546.165C170.757 545.796 170.728 545.458 170.669 545.15C170.61 544.842 170.514 544.579 170.379 544.359C170.244 544.139 170.068 543.968 169.852 543.845C169.635 543.722 169.371 543.66 169.061 543.66C168.762 543.66 168.491 543.726 168.248 543.858C168.004 543.99 167.795 544.177 167.619 544.42C167.443 544.664 167.307 544.954 167.21 545.291C167.114 545.627 167.065 545.998 167.065 546.402V551.5H164.596V544.117C164.596 543.912 164.594 543.701 164.591 543.484C164.588 543.268 164.582 543.061 164.574 542.865C164.565 542.668 164.558 542.493 164.552 542.337C164.546 542.182 164.537 542.066 164.525 541.99H166.881C166.893 542.061 166.904 542.173 166.916 542.329C166.928 542.484 166.939 542.655 166.951 542.843C166.963 543.03 166.973 543.218 166.982 543.405C166.991 543.593 166.995 543.751 166.995 543.88H167.03C167.364 543.153 167.783 542.626 168.287 542.298C168.791 541.97 169.392 541.806 170.089 541.806C170.663 541.806 171.148 541.899 171.543 542.087C171.939 542.274 172.261 542.532 172.51 542.86C172.759 543.188 172.939 543.575 173.051 544.021C173.162 544.466 173.218 544.946 173.218 545.462V551.5H170.757ZM179.555 551.676C178.799 551.676 178.138 551.559 177.573 551.324C177.007 551.09 176.537 550.759 176.162 550.331C175.787 549.903 175.506 549.389 175.318 548.789C175.131 548.188 175.037 547.524 175.037 546.798C175.037 546.007 175.14 545.302 175.345 544.684C175.55 544.066 175.846 543.544 176.232 543.12C176.619 542.695 177.095 542.371 177.661 542.148C178.226 541.926 178.869 541.814 179.59 541.814C180.205 541.814 180.751 541.896 181.229 542.061C181.707 542.225 182.118 542.449 182.464 542.733C182.81 543.017 183.089 543.353 183.303 543.739C183.517 544.126 183.665 544.542 183.747 544.987L181.26 545.11C181.189 544.624 181.014 544.236 180.732 543.946C180.451 543.656 180.053 543.511 179.537 543.511C178.875 543.511 178.392 543.783 178.087 544.328C177.782 544.873 177.63 545.664 177.63 546.701C177.63 548.893 178.277 549.988 179.572 549.988C180.041 549.988 180.434 549.84 180.75 549.544C181.066 549.249 181.263 548.808 181.339 548.222L183.817 548.336C183.759 548.775 183.625 549.196 183.417 549.597C183.209 549.999 182.928 550.353 182.574 550.661C182.219 550.968 181.79 551.214 181.286 551.399C180.782 551.583 180.205 551.676 179.555 551.676ZM188.036 543.889C188.37 543.162 188.789 542.635 189.293 542.307C189.797 541.979 190.397 541.814 191.095 541.814C191.669 541.814 192.154 541.908 192.549 542.096C192.945 542.283 193.267 542.541 193.516 542.869C193.765 543.197 193.945 543.584 194.057 544.029C194.168 544.475 194.224 544.955 194.224 545.471V551.5H191.763V546.174C191.763 545.805 191.733 545.466 191.675 545.159C191.616 544.851 191.519 544.587 191.385 544.368C191.25 544.148 191.074 543.977 190.857 543.854C190.641 543.73 190.377 543.669 190.066 543.669C189.768 543.669 189.497 543.735 189.253 543.867C189.01 543.999 188.801 544.186 188.625 544.429C188.449 544.672 188.313 544.962 188.216 545.299C188.12 545.636 188.071 546.007 188.071 546.411V551.5H185.602V538.457H188.071V542.017C188.071 542.204 188.068 542.393 188.062 542.583C188.057 542.774 188.049 542.953 188.04 543.12C188.032 543.287 188.024 543.438 188.019 543.572C188.013 543.707 188.007 543.812 188.001 543.889H188.036ZM209.631 551.5L208.532 548.336H203.812L202.714 551.5H200.121L204.639 539.116H207.697L212.197 551.5H209.631ZM206.73 542.825C206.66 542.62 206.591 542.414 206.524 542.206C206.457 541.998 206.398 541.807 206.348 541.634C206.298 541.461 206.257 541.319 206.225 541.208C206.193 541.097 206.174 541.035 206.168 541.023C206.162 541.041 206.144 541.105 206.115 541.217C206.086 541.328 206.046 541.469 205.997 541.639C205.947 541.809 205.888 541.998 205.821 542.206C205.753 542.414 205.685 542.62 205.614 542.825L204.393 546.385H207.952L206.73 542.825ZM222.929 546.701C222.929 547.422 222.857 548.087 222.713 548.696C222.57 549.306 222.349 549.83 222.05 550.27C221.751 550.709 221.372 551.053 220.912 551.302C220.452 551.551 219.908 551.676 219.281 551.676C219 551.676 218.72 551.646 218.442 551.588C218.164 551.529 217.898 551.434 217.646 551.302C217.394 551.17 217.162 550.998 216.948 550.784C216.734 550.57 216.551 550.305 216.398 549.988H216.346C216.352 550.018 216.357 550.091 216.363 550.208C216.369 550.325 216.375 550.461 216.381 550.617C216.387 550.772 216.391 550.936 216.394 551.109C216.397 551.282 216.398 551.441 216.398 551.588V555.235H213.929V544.179C213.929 543.692 213.921 543.259 213.907 542.878C213.892 542.497 213.876 542.201 213.858 541.99H216.258C216.269 542.031 216.283 542.11 216.297 542.228C216.312 542.345 216.324 542.479 216.332 542.632C216.341 542.784 216.349 542.942 216.354 543.106C216.36 543.271 216.363 543.414 216.363 543.537H216.398C216.697 542.91 217.107 542.462 217.629 542.192C218.15 541.923 218.754 541.788 219.439 541.788C220.043 541.788 220.564 541.911 221.004 542.157C221.443 542.403 221.805 542.743 222.089 543.177C222.373 543.61 222.584 544.127 222.722 544.728C222.86 545.329 222.929 545.986 222.929 546.701ZM220.353 546.701C220.353 545.617 220.189 544.813 219.861 544.289C219.533 543.764 219.044 543.502 218.394 543.502C218.147 543.502 217.903 543.553 217.66 543.656C217.416 543.758 217.2 543.934 217.009 544.183C216.819 544.432 216.664 544.766 216.543 545.185C216.423 545.604 216.363 546.133 216.363 546.771C216.363 547.393 216.422 547.91 216.539 548.323C216.656 548.736 216.81 549.065 217 549.312C217.191 549.558 217.406 549.732 217.646 549.834C217.887 549.937 218.13 549.988 218.376 549.988C218.692 549.988 218.974 549.925 219.22 549.799C219.466 549.673 219.672 549.477 219.839 549.21C220.006 548.944 220.134 548.603 220.222 548.187C220.31 547.771 220.353 547.275 220.353 546.701ZM233.924 546.701C233.924 547.422 233.852 548.087 233.708 548.696C233.565 549.306 233.344 549.83 233.045 550.27C232.746 550.709 232.367 551.053 231.907 551.302C231.447 551.551 230.903 551.676 230.276 551.676C229.995 551.676 229.715 551.646 229.437 551.588C229.159 551.529 228.894 551.434 228.642 551.302C228.39 551.17 228.157 550.998 227.943 550.784C227.729 550.57 227.546 550.305 227.394 549.988H227.341C227.347 550.018 227.353 550.091 227.358 550.208C227.364 550.325 227.37 550.461 227.376 550.617C227.382 550.772 227.386 550.936 227.389 551.109C227.392 551.282 227.394 551.441 227.394 551.588V555.235H224.924V544.179C224.924 543.692 224.916 543.259 224.902 542.878C224.887 542.497 224.871 542.201 224.853 541.99H227.253C227.265 542.031 227.278 542.11 227.292 542.228C227.307 542.345 227.319 542.479 227.328 542.632C227.336 542.784 227.344 542.942 227.35 543.106C227.355 543.271 227.358 543.414 227.358 543.537H227.394C227.692 542.91 228.103 542.462 228.624 542.192C229.145 541.923 229.749 541.788 230.435 541.788C231.038 541.788 231.56 541.911 231.999 542.157C232.438 542.403 232.8 542.743 233.084 543.177C233.369 543.61 233.58 544.127 233.717 544.728C233.855 545.329 233.924 545.986 233.924 546.701ZM231.349 546.701C231.349 545.617 231.185 544.813 230.856 544.289C230.528 543.764 230.039 543.502 229.389 543.502C229.143 543.502 228.898 543.553 228.655 543.656C228.412 543.758 228.195 543.934 228.004 544.183C227.814 544.432 227.659 544.766 227.539 545.185C227.418 545.604 227.358 546.133 227.358 546.771C227.358 547.393 227.417 547.91 227.534 548.323C227.651 548.736 227.805 549.065 227.996 549.312C228.186 549.558 228.401 549.732 228.642 549.834C228.882 549.937 229.125 549.988 229.371 549.988C229.687 549.988 229.969 549.925 230.215 549.799C230.461 549.673 230.667 549.477 230.834 549.21C231.001 548.944 231.129 548.603 231.217 548.187C231.305 547.771 231.349 547.275 231.349 546.701Z" fill="white"/>
<path d="M254.84 546.5H242.665V544.5H254.84L249.24 538.9L250.665 537.5L258.665 545.5L250.665 553.5L249.24 552.1L254.84 546.5V546.5" fill="white"/>
<mask id="path-13-inside-1_3_1432" fill="white">
<path d="M35 607.5H355V665.5H35V607.5Z"/>
</mask>
<path d="M35 607.5V608.5H355V607.5V606.5H35V607.5Z" fill="#E5E7EB" mask="url(#path-13-inside-1_3_1432)"/>
<path d="M118.75 646.75V640.5H125V643H121.25V646.75H118.75V646.75M118.75 665.5V659.25H121.25V663H125V665.5H118.75V665.5M137.5 665.5V663H141.25V659.25H143.75V665.5H137.5V665.5M141.25 646.75V643H137.5V640.5H143.75V646.75H141.25V646.75M138.125 659.875H140V661.75H138.125V659.875V659.875M138.125 656.125H140V658H138.125V656.125V656.125M136.25 658H138.125V659.875H136.25V658V658M134.375 659.875H136.25V661.75H134.375V659.875V659.875M132.5 658H134.375V659.875H132.5V658V658M136.25 654.25H138.125V656.125H136.25V654.25V654.25M134.375 656.125H136.25V658H134.375V656.125V656.125M132.5 654.25H134.375V656.125H132.5V654.25V654.25M140 644.25V651.75H132.5V644.25H140V644.25M130 654.25V661.75H122.5V654.25H130V654.25M130 644.25V651.75H122.5V644.25H130V644.25M128.125 659.875V656.125H124.375V659.875H128.125V659.875M128.125 649.875V646.125H124.375V649.875H128.125V649.875M138.125 649.875V646.125H134.375V649.875H138.125V649.875" fill="#4B5563"/>
<path d="M188.75 659.25H191.25V653H188.75V659.25V659.25M198.75 659.25H201.25V646.75H198.75V659.25V659.25M193.75 659.25H196.25V655.5H193.75V659.25V659.25M193.75 653H196.25V650.5H193.75V653V653M186.25 664.25C185.562 664.25 184.974 664.005 184.484 663.516C183.995 663.026 183.75 662.438 183.75 661.75V644.25C183.75 643.562 183.995 642.974 184.484 642.484C184.974 641.995 185.562 641.75 186.25 641.75H203.75C204.438 641.75 205.026 641.995 205.516 642.484C206.005 642.974 206.25 643.562 206.25 644.25V661.75C206.25 662.438 206.005 663.026 205.516 663.516C205.026 664.005 204.438 664.25 203.75 664.25H186.25V664.25M186.25 661.75H203.75V661.75V661.75V644.25V644.25V644.25H186.25V644.25V644.25V661.75V661.75V661.75V661.75M186.25 644.25V644.25V644.25V644.25V661.75V661.75V661.75V661.75V661.75V661.75V644.25V644.25V644.25V644.25" fill="#4B5563"/>
<path d="M246.25 663V660.5H249.656C248.594 659.583 247.76 658.479 247.156 657.188C246.552 655.896 246.25 654.5 246.25 653C246.25 650.667 246.958 648.609 248.375 646.828C249.792 645.047 251.583 643.875 253.75 643.312V645.938C252.292 646.458 251.094 647.359 250.156 648.641C249.219 649.922 248.75 651.375 248.75 653C248.75 654.125 248.974 655.161 249.422 656.109C249.87 657.057 250.479 657.875 251.25 658.562V655.5H253.75V663H246.25V663M260 663C258.958 663 258.073 662.635 257.344 661.906C256.615 661.177 256.25 660.292 256.25 659.25C256.25 658.25 256.594 657.391 257.281 656.672C257.969 655.953 258.812 655.573 259.812 655.531C260.167 654.781 260.693 654.172 261.391 653.703C262.089 653.234 262.875 653 263.75 653C264.854 653 265.807 653.359 266.609 654.078C267.411 654.797 267.896 655.688 268.062 656.75V656.75C268.938 656.75 269.688 657.052 270.312 657.656C270.938 658.26 271.25 658.99 271.25 659.844C271.25 660.719 270.948 661.464 270.344 662.078C269.74 662.693 269 663 268.125 663H260V663M263.625 651.75C263.479 650.896 263.198 650.104 262.781 649.375C262.365 648.646 261.854 648 261.25 647.438V650.5H258.75V643H266.25V645.5H262.844C263.74 646.292 264.474 647.219 265.047 648.281C265.62 649.344 265.99 650.5 266.156 651.75H263.625V651.75M260 660.5H268.125C268.292 660.5 268.438 660.438 268.562 660.312C268.688 660.188 268.75 660.042 268.75 659.875C268.75 659.708 268.688 659.562 268.562 659.438C268.438 659.312 268.292 659.25 268.125 659.25H265.938V657.688C265.938 657.083 265.724 656.568 265.297 656.141C264.87 655.714 264.354 655.5 263.75 655.5C263.146 655.5 262.63 655.714 262.203 656.141C261.776 656.568 261.562 657.083 261.562 657.688V658H260C259.646 658 259.349 658.12 259.109 658.359C258.87 658.599 258.75 658.896 258.75 659.25C258.75 659.604 258.87 659.901 259.109 660.141C259.349 660.38 259.646 660.5 260 660.5V660.5M263.75 658V658V658V658V658V658V658V658V658V658V658V658V658V658V658V658V658V658V658" fill="#4B5563"/>
<defs>
<filter id="filter0_d_3_1432" x="137" y="206.5" width="116" height="116" filterUnits="userSpaceOnUse" color-interpolation-filters="sRGB">
<feFlood flood-opacity="0" result="BackgroundImageFix"/>
<feColorMatrix in="SourceAlpha" type="matrix" values="0 0 0 0 0 0 0 0 0 0 0 0 0 0 0 0 0 0 127 0" result="hardAlpha"/>
<feOffset dy="1"/>
<feGaussianBlur stdDeviation="1"/>
<feComposite in2="hardAlpha" operator="out"/>
<feColorMatrix type="matrix" values="0 0 0 0 0 0 0 0 0 0 0 0 0 0 0 0 0 0 0.05 0"/>
<feBlend mode="normal" in2="BackgroundImageFix" result="effect1_dropShadow_3_1432"/>
<feBlend mode="normal" in="SourceGraphic" in2="effect1_dropShadow_3_1432" result="shape"/>
</filter>
<filter id="filter1_dd_3_1432" x="23" y="513.5" width="344" height="84" filterUnits="userSpaceOnUse" color-interpolation-filters="sRGB">
<feFlood flood-opacity="0" result="BackgroundImageFix"/>
<feColorMatrix in="SourceAlpha" type="matrix" values="0 0 0 0 0 0 0 0 0 0 0 0 0 0 0 0 0 0 127 0" result="hardAlpha"/>
<feMorphology radius="4" operator="erode" in="SourceAlpha" result="effect1_dropShadow_3_1432"/>
<feOffset dy="4"/>
<feGaussianBlur stdDeviation="3"/>
<feComposite in2="hardAlpha" operator="out"/>
<feColorMatrix type="matrix" values="0 0 0 0 0.133333 0 0 0 0 0.772549 0 0 0 0 0.368627 0 0 0 0.1 0"/>
<feBlend mode="normal" in2="BackgroundImageFix" result="effect1_dropShadow_3_1432"/>
<feColorMatrix in="SourceAlpha" type="matrix" values="0 0 0 0 0 0 0 0 0 0 0 0 0 0 0 0 0 0 127 0" result="hardAlpha"/>
<feMorphology radius="3" operator="erode" in="SourceAlpha" result="effect2_dropShadow_3_1432"/>
<feOffset dy="10"/>
<feGaussianBlur stdDeviation="7.5"/>
<feComposite in2="hardAlpha" operator="out"/>
<feColorMatrix type="matrix" values="0 0 0 0 0.133333 0 0 0 0 0.772549 0 0 0 0 0.368627 0 0 0 0.1 0"/>
<feBlend mode="normal" in2="effect1_dropShadow_3_1432" result="effect2_dropShadow_3_1432"/>
<feBlend mode="normal" in="SourceGraphic" in2="effect2_dropShadow_3_1432" result="shape"/>
</filter>
</defs>
</svg>
